<svg width="140" height="24" viewBox="0 0 140 24" fill="none" xmlns="http://www.w3.org/2000/svg">
<path d="M6.02704 18.6453H9.18352e-05V0.859739H6.14862C7.91445 0.859739 9.43132 1.2158 10.6992 1.92792C11.9729 2.63424 12.9514 3.65032 13.6345 4.97613C14.3177 6.30194 14.6593 7.88829 14.6593 9.73516C14.6593 11.5878 14.3148 13.18 13.6259 14.5116C12.9427 15.8432 11.9556 16.865 10.6645 17.5771C9.37921 18.2893 7.83339 18.6453 6.02704 18.6453ZM3.22199 15.8576H5.87072C7.10969 15.8576 8.14313 15.6318 8.97104 15.1803C9.79895 14.7229 10.4213 14.0426 10.8382 13.1394C11.255 12.2305 11.4635 11.0957 11.4635 9.73516C11.4635 8.37461 11.255 7.24564 10.8382 6.34826C10.4213 5.44509 9.80474 4.7706 8.98841 4.3248C8.17787 3.87322 7.17048 3.64742 5.96625 3.64742H3.22199V15.8576ZM17.337 18.6453V5.30614H20.4808V18.6453H17.337ZM18.9176 3.41294C18.4197 3.41294 17.9913 3.24794 17.6323 2.91793C17.2734 2.58214 17.0939 2.17976 17.0939 1.71081C17.0939 1.23606 17.2734 0.833686 17.6323 0.50368C17.9913 0.167884 18.4197 -1.31005e-05 18.9176 -1.31005e-05C19.4213 -1.31005e-05 19.8497 0.167884 20.2029 0.50368C20.5618 0.833686 20.7413 1.23606 20.7413 1.71081C20.7413 2.17976 20.5618 2.58214 20.2029 2.91793C19.8497 3.24794 19.4213 3.41294 18.9176 3.41294ZM29.2701 23.9254C28.1412 23.9254 27.1714 23.772 26.3609 23.4651C25.5503 23.1641 24.899 22.7588 24.4069 22.2493C23.9148 21.7399 23.5732 21.1754 23.3821 20.5559L26.2132 19.8698C26.3406 20.1304 26.5259 20.388 26.769 20.6427C27.0122 20.9033 27.3393 21.1175 27.7504 21.2854C28.1672 21.4591 28.6912 21.5459 29.3223 21.5459C30.2138 21.5459 30.952 21.3288 31.5368 20.8946C32.1215 20.4661 32.4139 19.7598 32.4139 18.7756V16.2484H32.2576C32.0955 16.5727 31.8581 16.9056 31.5454 17.2471C31.2386 17.5887 30.8304 17.8753 30.321 18.1069C29.8173 18.3385 29.1833 18.4543 28.4191 18.4543C27.3943 18.4543 26.4651 18.214 25.6314 17.7335C24.8035 17.2471 24.1435 16.5234 23.6514 15.5624C23.165 14.5955 22.9219 13.3855 22.9219 11.9323C22.9219 10.4675 23.165 9.23147 23.6514 8.22408C24.1435 7.21091 24.8064 6.44379 25.6401 5.92273C26.4738 5.39587 27.403 5.13245 28.4278 5.13245C29.2094 5.13245 29.852 5.26561 30.3557 5.53193C30.8652 5.79246 31.2704 6.10799 31.5715 6.47853C31.8726 6.84327 32.1012 7.18775 32.2576 7.51197H32.4313V5.30614H35.5316V18.8624C35.5316 20.003 35.2595 20.9467 34.7152 21.6935C34.171 22.4404 33.4271 22.9991 32.4834 23.3696C31.5397 23.7402 30.4686 23.9254 29.2701 23.9254ZM29.2962 15.9879C29.962 15.9879 30.5294 15.8258 30.9983 15.5016C31.4673 15.1774 31.8233 14.7113 32.0665 14.1034C32.3097 13.4955 32.4313 12.766 32.4313 11.9149C32.4313 11.0755 32.3097 10.3402 32.0665 9.70911C31.8291 9.07805 31.476 8.58883 31.007 8.24145C30.5439 7.88829 29.9736 7.71171 29.2962 7.71171C28.5957 7.71171 28.0109 7.89408 27.542 8.25882C27.073 8.62356 26.7198 9.12436 26.4825 9.76122C26.2451 10.3923 26.1264 11.1102 26.1264 11.9149C26.1264 12.7313 26.2451 13.4463 26.4825 14.06C26.7256 14.6679 27.0817 15.1426 27.5506 15.4842C28.0254 15.82 28.6072 15.9879 29.2962 15.9879ZM38.5089 18.6453V5.30614H41.6527V18.6453H38.5089ZM40.0895 3.41294C39.5916 3.41294 39.1631 3.24794 38.8042 2.91793C38.4452 2.58214 38.2658 2.17976 38.2658 1.71081C38.2658 1.23606 38.4452 0.833686 38.8042 0.50368C39.1631 0.167884 39.5916 -1.31005e-05 40.0895 -1.31005e-05C40.5932 -1.31005e-05 41.0216 0.167884 41.3748 0.50368C41.7337 0.833686 41.9132 1.23606 41.9132 1.71081C41.9132 2.17976 41.7337 2.58214 41.3748 2.91793C41.0216 3.24794 40.5932 3.41294 40.0895 3.41294ZM51.3018 5.30614V7.73776H43.6335V5.30614H51.3018ZM45.5267 2.11029H48.6704V14.6331C48.6704 15.0558 48.7341 15.38 48.8615 15.6058C48.9946 15.8258 49.1683 15.9763 49.3825 16.0574C49.5967 16.1384 49.8341 16.179 50.0946 16.179C50.2915 16.179 50.471 16.1645 50.6331 16.1355C50.801 16.1066 50.9283 16.0805 51.0152 16.0574L51.5449 18.5151C51.377 18.573 51.1368 18.6366 50.8241 18.7061C50.5173 18.7756 50.141 18.8161 49.6952 18.8277C48.9078 18.8509 48.1986 18.7322 47.5675 18.4716C46.9364 18.2053 46.4356 17.7943 46.0651 17.2385C45.7004 16.6827 45.5209 15.9879 45.5267 15.1542V2.11029ZM57.5249 18.9145C56.6796 18.9145 55.9183 18.764 55.2409 18.463C54.5693 18.1561 54.0367 17.7045 53.643 17.1082C53.2551 16.5119 53.0611 15.7766 53.0611 14.9024C53.0611 14.1497 53.2001 13.5273 53.478 13.0352C53.7559 12.5431 54.1351 12.1494 54.6156 11.8541C55.0962 11.5589 55.6375 11.336 56.2396 11.1855C56.8475 11.0291 57.4757 10.9162 58.1241 10.8468C58.9057 10.7657 59.5397 10.6933 60.026 10.6297C60.5123 10.5602 60.8655 10.456 61.0855 10.317C61.3113 10.1723 61.4242 9.94938 61.4242 9.64832V9.59621C61.4242 8.94199 61.2302 8.4354 60.8423 8.07645C60.4544 7.7175 59.8957 7.53802 59.1663 7.53802C58.3962 7.53802 57.7854 7.70592 57.3339 8.04171C56.8881 8.37751 56.587 8.77409 56.4307 9.23147L53.4954 8.81462C53.7269 8.00408 54.1091 7.3267 54.6417 6.78248C55.1743 6.23247 55.8257 5.82141 56.5957 5.5493C57.3657 5.2714 58.2168 5.13245 59.1489 5.13245C59.7915 5.13245 60.4313 5.20771 61.0681 5.35824C61.705 5.50877 62.2868 5.75772 62.8137 6.1051C63.3405 6.44668 63.7632 6.91274 64.0816 7.50328C64.4058 8.09382 64.5679 8.83199 64.5679 9.71779V18.6453H61.5458V16.8129H61.4416C61.2505 17.1835 60.9813 17.5308 60.6339 17.855C60.2923 18.1735 59.861 18.4311 59.3399 18.628C58.8247 18.819 58.2197 18.9145 57.5249 18.9145ZM58.3412 16.6045C58.9723 16.6045 59.5194 16.48 59.9826 16.2311C60.4458 15.9763 60.8018 15.6405 61.0508 15.2237C61.3055 14.8068 61.4329 14.3524 61.4329 13.8602V12.2884C61.3345 12.3694 61.1666 12.4447 60.9292 12.5142C60.6976 12.5836 60.4371 12.6444 60.1476 12.6965C59.8581 12.7486 59.5715 12.795 59.2878 12.8355C59.0041 12.876 58.7581 12.9107 58.5497 12.9397C58.0807 13.0034 57.661 13.1076 57.2904 13.2523C56.9199 13.3971 56.6275 13.5997 56.4133 13.8602C56.1991 14.115 56.092 14.445 56.092 14.8503C56.092 15.4292 56.3033 15.8663 56.7259 16.1616C57.1486 16.4569 57.687 16.6045 58.3412 16.6045ZM70.6282 0.859739V18.6453H67.4845V0.859739H70.6282ZM89.2426 5.74904C89.1615 4.9906 88.8199 4.40007 88.2178 3.97743C87.6215 3.55479 86.8457 3.34347 85.8904 3.34347C85.2188 3.34347 84.6427 3.44479 84.1622 3.64742C83.6817 3.85006 83.314 4.12506 83.0593 4.47244C82.8045 4.81981 82.6743 5.2164 82.6685 5.6622C82.6685 6.03273 82.7524 6.35405 82.9203 6.62616C83.094 6.89827 83.3285 7.12985 83.6238 7.32091C83.919 7.50618 84.2462 7.66249 84.6051 7.78986C84.9641 7.91724 85.3259 8.02434 85.6907 8.11119L87.3581 8.52804C88.0296 8.68435 88.6752 8.89567 89.2947 9.162C89.9199 9.42832 90.4786 9.76411 90.9707 10.1694C91.4687 10.5747 91.8623 11.0639 92.1518 11.637C92.4413 12.2102 92.586 12.8818 92.586 13.6518C92.586 14.6939 92.3197 15.6116 91.7871 16.4048C91.2544 17.1921 90.4844 17.8087 89.477 18.2545C88.4754 18.6945 87.2625 18.9145 85.8383 18.9145C84.4546 18.9145 83.2532 18.7003 82.2343 18.2719C81.2211 17.8435 80.4279 17.2182 79.8548 16.3961C79.2874 15.574 78.9805 14.5724 78.9342 13.3913H82.104C82.1503 14.0108 82.3414 14.526 82.6772 14.9371C83.013 15.3482 83.4501 15.655 83.9885 15.8576C84.5327 16.0603 85.1406 16.1616 85.8122 16.1616C86.5128 16.1616 87.1265 16.0574 87.6533 15.849C88.186 15.6347 88.6028 15.3395 88.9039 14.9632C89.2049 14.581 89.3584 14.1352 89.3641 13.6258C89.3584 13.1626 89.2223 12.7805 88.956 12.4794C88.6897 12.1726 88.3162 11.9178 87.8357 11.7152C87.3609 11.5068 86.8051 11.3215 86.1683 11.1594L84.1448 10.6383C82.6801 10.262 81.5222 9.69174 80.6711 8.92752C79.8258 8.1575 79.4032 7.13564 79.4032 5.86193C79.4032 4.81402 79.6869 3.89637 80.2542 3.10899C80.8274 2.32161 81.6061 1.71081 82.5903 1.27659C83.5746 0.836581 84.6891 0.616577 85.9338 0.616577C87.1959 0.616577 88.3018 0.836581 89.2512 1.27659C90.2065 1.71081 90.9563 2.31582 91.5005 3.09162C92.0447 3.86164 92.3255 4.74744 92.3429 5.74904H89.2426ZM101.736 5.30614V7.73776H94.0675V5.30614H101.736ZM95.9607 2.11029H99.1044V14.6331C99.1044 15.0558 99.1681 15.38 99.2955 15.6058C99.4287 15.8258 99.6023 15.9763 99.8166 16.0574C100.031 16.1384 100.268 16.179 100.529 16.179C100.726 16.179 100.905 16.1645 101.067 16.1355C101.235 16.1066 101.362 16.0805 101.449 16.0574L101.979 18.5151C101.811 18.573 101.571 18.6366 101.258 18.7061C100.951 18.7756 100.575 18.8161 100.129 18.8277C99.3418 18.8509 98.6326 18.7322 98.0015 18.4716C97.3705 18.2053 96.8697 17.7943 96.4991 17.2385C96.1344 16.6827 95.9549 15.9879 95.9607 15.1542V2.11029ZM109.796 18.9059C108.493 18.9059 107.364 18.6193 106.409 18.0461C105.453 17.4729 104.712 16.6711 104.186 15.6405C103.665 14.61 103.404 13.4058 103.404 12.0278C103.404 10.6499 103.665 9.44279 104.186 8.40645C104.712 7.37012 105.453 6.56537 106.409 5.9922C107.364 5.41903 108.493 5.13245 109.796 5.13245C111.098 5.13245 112.227 5.41903 113.183 5.9922C114.138 6.56537 114.876 7.37012 115.397 8.40645C115.924 9.44279 116.187 10.6499 116.187 12.0278C116.187 13.4058 115.924 14.61 115.397 15.6405C114.876 16.6711 114.138 17.4729 113.183 18.0461C112.227 18.6193 111.098 18.9059 109.796 18.9059ZM109.813 16.3874C110.519 16.3874 111.11 16.1934 111.585 15.8055C112.059 15.4118 112.413 14.885 112.644 14.225C112.882 13.565 113 12.8297 113 12.0192C113 11.2028 112.882 10.4647 112.644 9.80464C112.413 9.13884 112.059 8.60909 111.585 8.2154C111.11 7.82171 110.519 7.62486 109.813 7.62486C109.089 7.62486 108.487 7.82171 108.007 8.2154C107.532 8.60909 107.176 9.13884 106.939 9.80464C106.707 10.4647 106.591 11.2028 106.591 12.0192C106.591 12.8297 106.707 13.565 106.939 14.225C107.176 14.885 107.532 15.4118 108.007 15.8055C108.487 16.1934 109.089 16.3874 109.813 16.3874ZM118.611 18.6453V5.30614H121.659V7.52933H121.798C122.041 6.75932 122.458 6.16589 123.049 5.74904C123.645 5.3264 124.325 5.11508 125.09 5.11508C125.263 5.11508 125.457 5.12376 125.671 5.14113C125.891 5.15271 126.074 5.17298 126.219 5.20192V8.09382C126.085 8.0475 125.874 8.00697 125.585 7.97224C125.301 7.93171 125.026 7.91145 124.76 7.91145C124.186 7.91145 123.671 8.03592 123.214 8.28487C122.762 8.52804 122.406 8.86673 122.146 9.30094C121.885 9.73516 121.755 10.236 121.755 10.8033V18.6453H118.611ZM133.419 18.9059C132.081 18.9059 130.926 18.628 129.954 18.0722C128.987 17.5106 128.243 16.7174 127.722 15.6926C127.201 14.6621 126.94 13.4492 126.94 12.0539C126.94 10.6818 127.201 9.47753 127.722 8.44119C128.249 7.39907 128.984 6.58853 129.928 6.00957C130.871 5.42482 131.98 5.13245 133.254 5.13245C134.076 5.13245 134.852 5.26561 135.581 5.53193C136.316 5.79246 136.965 6.19773 137.526 6.74774C138.094 7.29775 138.54 7.99829 138.864 8.84936C139.188 9.69464 139.35 10.702 139.35 11.8715V12.8355H128.417V10.7165H136.337C136.331 10.1144 136.201 9.57884 135.946 9.10989C135.691 8.63514 135.335 8.26172 134.878 7.98961C134.426 7.7175 133.899 7.58144 133.297 7.58144C132.655 7.58144 132.09 7.73776 131.604 8.0504C131.117 8.35724 130.738 8.76251 130.466 9.26621C130.2 9.76411 130.064 10.3112 130.058 10.9076V12.7573C130.058 13.5331 130.2 14.1989 130.483 14.7547C130.767 15.3047 131.164 15.7274 131.673 16.0226C132.183 16.3121 132.779 16.4569 133.462 16.4569C133.92 16.4569 134.333 16.3932 134.704 16.2658C135.075 16.1326 135.396 15.9387 135.668 15.684C135.94 15.4292 136.146 15.1137 136.285 14.7374L139.22 15.0674C139.035 15.8432 138.681 16.5205 138.16 17.0995C137.645 17.6727 136.985 18.1185 136.18 18.4369C135.376 18.7495 134.455 18.9059 133.419 18.9059Z" fill="white"/>
</svg>
